# xmcd
#
# Track frame offsets: 
#        150
#        12613
#        27385
#        44520
#        53309
#        67734
#        81298
#        92782
#        105511
#        124181
#        139276
#        156333
#        173315
#        191811
#        207158
#        219632
#
# Disc length: 3035 seconds
#
# Revision: 0
# Processed by: cddbd v1.5.2PL0 Copyright (c) Steve Scherf et al.
# Submitted via: ExactAudioCopy v1.0b3
#
DISCID=db0bd910
DTITLE=Hayseed Dixie - Weapons of Grass Destruction
DYEAR=2007
DGENRE=Pop/Rock
TTITLE0=Holidays in the Sun
TTITLE1=Devil Woman
TTITLE2=I Don't Feel Like Dancing
TTITLE3=She Was Skinny When I Met Her
TTITLE4=Strawberry Fields Forever
TTITLE5=Before Your Old Man Gets Home
TTITLE6=Breaking the Law
TTITLE7=More Pretty Girls Than One
TTITLE8=Down Down
TTITLE9=Walking Cane
TTITLE10=Paint It Black
TTITLE11=Hungover Brokedown
TTITLE12=Poison
TTITLE13=The Rider Song
TTITLE14=I Got Erection
TTITLE15=Bbq
EXTD=
EXTT0=
EXTT1=
EXTT2=
EXTT3=
EXTT4=
EXTT5=
EXTT6=
EXTT7=
EXTT8=
EXTT9=
EXTT10=
EXTT11=
EXTT12=
EXTT13=
EXTT14=
EXTT15=
PLAYORDER=
